# xmcd
#
# Track frame offsets:
#	150
#	22175
#	46165
#	56713
#	70888
#	97090
#	114333
#	143958
#	155773
#	176365
#
# Disc length: 2643 seconds
#
# Revision: 2
# Processed by: cddbd v1.4PL0 Copyright (c) Steve Scherf et al.
# Submitted via: audiograbber 1.81.03
#
DISCID=8c0a510a
DTITLE=Johnny Winter - 3rd Degree
DYEAR=1986
DGENRE=Blues
TTITLE0=Mojo Boogie
TTITLE1=Love, Life And Money
TTITLE2=Evil On My Mind
TTITLE3=See See Baby
TTITLE4=Tin Pan Alley
TTITLE5=I'm Good
TTITLE6=Third Degree
TTITLE7=Shake Your Moneymaker
TTITLE8=Bad Girl Blues
TTITLE9=Broke And Lonely
EXTD=
EXTT0=
EXTT1=
EXTT2=
EXTT3=
EXTT4=
EXTT5=
EXTT6=
EXTT7=
EXTT8=
EXTT9=
PLAYORDER=
